<svg id="astronaut" enable-background="new 0 0 300 300" height="512" viewBox="0 0 300 300" width="512" xmlns="http://www.w3.org/2000/svg"><circle cx="166.686" cy="119.91" fill="#edebdc" r="90"/><g fill="#4c241d"><path d="m249.6 67.02c-1.023 0-2.047-.391-2.828-1.172-1.562-1.562-1.562-4.094 0-5.656l14.172-14.176c1.562-1.562 4.094-1.562 5.656 0s1.562 4.094 0 5.656l-14.172 14.176c-.782.781-1.805 1.172-2.828 1.172z"/><path d="m263.771 67.02c-1.023 0-2.047-.391-2.828-1.172l-14.172-14.176c-1.562-1.562-1.562-4.094 0-5.656s4.094-1.562 5.656 0l14.173 14.175c1.562 1.562 1.562 4.094 0 5.656-.782.782-1.805 1.173-2.829 1.173z"/><path d="m245.6 263.02c-1.023 0-2.047-.391-2.828-1.172-1.562-1.562-1.562-4.094 0-5.656l14.172-14.176c1.562-1.562 4.094-1.562 5.656 0s1.562 4.094 0 5.656l-14.172 14.176c-.782.781-1.805 1.172-2.828 1.172z"/><path d="m259.771 263.02c-1.023 0-2.047-.391-2.828-1.172l-14.172-14.176c-1.562-1.562-1.562-4.094 0-5.656s4.094-1.562 5.656 0l14.172 14.176c1.562 1.562 1.562 4.094 0 5.656-.781.781-1.804 1.172-2.828 1.172z"/><circle cx="44.686" cy="45.91" r="4"/><circle cx="104.686" cy="41.91" r="4"/><circle cx="164.686" cy="261.91" r="4"/><circle cx="40.686" cy="161.91" r="4"/><circle cx="256.686" cy="205.91" r="4"/><circle cx="260.686" cy="101.91" r="4"/><circle cx="164.686" cy="53.91" r="4"/><path d="m61.6 91.02c-1.023 0-2.047-.391-2.828-1.172-1.562-1.562-1.562-4.094 0-5.656l14.172-14.176c1.562-1.562 4.094-1.562 5.656 0s1.562 4.094 0 5.656l-14.172 14.176c-.782.781-1.805 1.172-2.828 1.172z"/><path d="m75.771 91.02c-1.023 0-2.047-.391-2.828-1.172l-14.172-14.176c-1.562-1.562-1.562-4.094 0-5.656s4.094-1.562 5.656 0l14.173 14.175c1.562 1.562 1.562 4.094 0 5.656-.782.782-1.805 1.173-2.829 1.173z"/></g><path d="m147.25 207.079-54.839-54.839c-5.945-5.945-5.945-15.584 0-21.529l51.847-51.847c5.945-5.945 15.584-5.945 21.529 0l54.839 54.839c5.945 5.945 5.945 15.584 0 21.529l-51.847 51.847c-5.945 5.945-15.584 5.945-21.529 0z" fill="#fc8c29"/><path d="m158.014 215.535c-5.133 0-9.961-1.996-13.59-5.629l-54.84-54.836c-7.496-7.496-7.496-19.691 0-27.188l51.848-51.848c7.492-7.484 19.691-7.492 27.184 0l54.84 54.84c3.633 3.629 5.629 8.457 5.629 13.594s-1.996 9.961-5.629 13.59l-51.848 51.848c-3.629 3.633-8.458 5.629-13.594 5.629zm-2.993-137.125c-2.871 0-5.746 1.094-7.934 3.281l-51.847 51.848c-4.375 4.375-4.375 11.5 0 15.875l54.84 54.836c4.246 4.242 11.633 4.242 15.871 0l51.848-51.848c2.121-2.121 3.285-4.938 3.285-7.934 0-3-1.164-5.816-3.285-7.938l-54.84-54.84c-2.188-2.186-5.063-3.28-7.938-3.28z" fill="#4c241d"/><path d="m98.455 266.09-25.456-25.456 13.952-13.952 18.604 18.604c3.784 3.784 3.784 9.919 0 13.703z" fill="#b5a19c"/><path d="m98.455 270.09c-1.023 0-2.047-.391-2.828-1.172l-25.457-25.457c-.75-.75-1.172-1.766-1.172-2.828s.422-2.078 1.172-2.828l13.953-13.949c1.562-1.562 4.094-1.562 5.656 0l18.605 18.602c5.336 5.34 5.336 14.023 0 19.359l-7.102 7.102c-.78.78-1.803 1.171-2.827 1.171zm-19.801-29.457 19.801 19.801 4.273-4.273c2.219-2.219 2.215-5.828 0-8.047l-15.777-15.774z" fill="#4c241d"/><path d="m61.685 229.321-25.456-25.456 7.1-7.1c3.784-3.784 9.919-3.784 13.703 0l18.604 18.604z" fill="#b5a19c"/><path d="m61.686 233.32c-1.023 0-2.047-.391-2.828-1.172l-25.458-25.457c-.75-.75-1.172-1.77-1.172-2.828 0-1.062.422-2.078 1.172-2.828l7.102-7.098c5.172-5.172 14.188-5.172 19.359 0l18.605 18.602c.75.75 1.172 1.766 1.172 2.828s-.422 2.078-1.172 2.828l-13.953 13.953c-.781.782-1.804 1.172-2.827 1.172zm-19.801-29.457 19.801 19.801 8.297-8.297-15.777-15.773c-2.219-2.219-5.828-2.219-8.047 0z" fill="#4c241d"/><path d="m146.474 104.933c-3.334-3.334-7.731-5.407-12.435-5.73-12.858-.882-39.688 1.231-66.317 27.859l-3.985 3.985c-4.273 4.273-4.273 11.201 0 15.474 4.25 4.25 11.146 4.306 15.405.065 11.202-11.152 33.012-29.631 50.696-25.017z" fill="#fff"/><path d="m71.494 153.73c-3.828 0-7.664-1.461-10.586-4.383-5.82-5.824-5.82-15.305 0-21.129l3.984-3.984c27.516-27.516 55.297-29.984 69.422-29.023 5.609.387 10.93 2.836 14.988 6.895 1.562 1.562 1.562 4.094 0 5.656l-16.637 16.637c-1 1.004-2.457 1.395-3.84 1.043-16.293-4.254-38.199 15.355-46.863 23.98-2.882 2.871-6.671 4.308-10.468 4.308zm57.899-50.683c-13.633 0-36.203 4.203-58.844 26.844l-3.984 3.984c-2.703 2.707-2.703 7.109 0 9.816 2.703 2.703 7.074 2.727 9.754.062 11.508-11.457 33.152-29.691 52.223-26.543l11.922-11.922c-2.051-1.207-4.34-1.934-6.695-2.094-1.33-.092-2.794-.147-4.376-.147z" fill="#4c241d"/><path d="m189.572 130.933-21.205-21.205c-7.475-7.475-19.595-7.475-27.07 0l-85.651 85.651 19.99 19.99 22.818-22.818c3.124-3.124 8.19-3.124 11.314 0 3.124 3.124 3.124 8.189 0 11.314l-22.818 22.818 16.971 16.971 85.651-85.651c7.475-7.476 7.475-19.595 0-27.07z" fill="#9dc1e4"/><path d="m103.92 247.652c-1.023 0-2.047-.391-2.828-1.172l-16.969-16.969c-1.562-1.562-1.562-4.094 0-5.656l22.816-22.82c.758-.758 1.172-1.758 1.172-2.828 0-1.066-.418-2.07-1.172-2.828-1.516-1.508-4.141-1.508-5.656 0l-22.82 22.816c-1.562 1.562-4.094 1.562-5.656 0l-19.988-19.988c-.75-.75-1.172-1.766-1.172-2.828s.422-2.078 1.172-2.828l85.652-85.648c4.367-4.371 10.18-6.781 16.363-6.781 6.18 0 11.992 2.41 16.363 6.781l21.203 21.203c9.02 9.023 9.02 23.703 0 32.727l-85.652 85.648c-.781.781-1.805 1.171-2.828 1.171zm-11.313-20.968 11.312 11.312 82.824-82.82c5.898-5.902 5.898-15.512 0-21.414l-21.203-21.203c-5.719-5.719-15.695-5.715-21.414 0l-82.824 82.82 14.332 14.332 19.992-19.988c4.531-4.531 12.438-4.531 16.969 0 2.266 2.266 3.516 5.281 3.516 8.484 0 3.207-1.25 6.223-3.516 8.488z" fill="#4c241d"/><path d="m128.538 134.953h36v36h-36z" fill="#fff" transform="matrix(.707 .707 -.707 .707 151.074 -58.819)"/><path d="m146.537 182.41c-1.023 0-2.047-.391-2.828-1.172l-25.457-25.457c-1.562-1.562-1.562-4.094 0-5.656l25.457-25.457c1.562-1.562 4.094-1.562 5.656 0l25.457 25.457c1.562 1.562 1.562 4.094 0 5.656l-25.457 25.457c-.781.782-1.804 1.172-2.828 1.172zm-19.801-29.457 19.801 19.801 19.801-19.801-19.801-19.801z" fill="#4c241d"/><path d="m224.673 130.843c15.276-15.276 15.276-40.042 0-55.318-15.275-15.275-40.042-15.276-55.318 0-8.694 8.694-12.423 20.461-11.22 31.805 2.545 17.339 16.687 31.481 34.734 34.734 11.343 1.201 23.11-2.527 31.804-11.221z" fill="#fff"/><path d="m197.072 146.285c-1.535 0-3.078-.082-4.625-.246-19.875-3.566-35.492-19.23-38.27-38.129-1.402-13.191 3.105-25.969 12.352-35.215 16.809-16.816 44.164-16.809 60.973 0 16.809 16.812 16.809 44.164 0 60.977-8.148 8.144-19.039 12.613-30.43 12.613zm-.058-78.199c-8.992 0-17.98 3.422-24.828 10.266-7.527 7.527-11.199 17.938-10.074 28.555 2.266 15.391 15.211 28.293 31.465 31.219 10.34 1.082 20.742-2.586 28.27-10.109 13.688-13.691 13.688-35.973 0-49.664-6.849-6.845-15.841-10.267-24.833-10.267zm27.66 62.758h.039z" fill="#4c241d"/><path d="m194.558 153.017c3.334 3.334 5.407 7.731 5.73 12.435.882 12.857-1.231 39.688-27.859 66.317l-3.985 3.985c-4.273 4.273-11.201 4.273-15.474 0-4.25-4.25-4.306-11.146-.065-15.405 11.152-11.202 29.631-33.012 25.017-50.696z" fill="#fff"/><path d="m160.709 242.957c-3.992 0-7.746-1.551-10.566-4.375-5.809-5.809-5.844-15.254-.074-21.055 8.629-8.668 28.234-30.582 23.984-46.867-.359-1.371.039-2.832 1.043-3.836l16.633-16.637c1.5-1.5 4.156-1.5 5.656 0 4.062 4.062 6.512 9.387 6.895 14.992.969 14.117-1.512 41.91-29.023 69.418l-3.984 3.984c-2.822 2.825-6.576 4.376-10.564 4.376zm21.574-72.008c3.121 19.023-15.09 40.715-26.543 52.219-2.668 2.68-2.641 7.059.059 9.758s7.109 2.707 9.816 0l3.984-3.984c25.27-25.27 27.574-50.453 26.695-63.215-.16-2.359-.883-4.648-2.094-6.699z" fill="#4c241d"/><path d="m215.284 121.042c9.976-9.976 9.976-26.151 0-36.127s-26.15-9.976-36.127 0c-5.627 5.627-8.077 13.226-7.356 20.572.193 7.868 14.335 22.01 22.91 22.91 7.347.722 14.946-1.729 20.573-7.355z" fill="#c1dbdc"/><path d="m197.24 132.523c-.969 0-1.941-.047-2.918-.145-10.68-1.121-26.277-16.898-26.52-26.793-.852-8.551 2.25-17.223 8.527-23.5 11.516-11.523 30.266-11.523 41.781 0 11.52 11.52 11.52 30.266 0 41.785-5.581 5.583-13.057 8.653-20.87 8.653zm-.019-51.082c-5.516 0-11.035 2.102-15.234 6.301-4.578 4.578-6.836 10.902-6.203 17.355.148 5.719 12.309 18.582 19.348 19.324 6.453.605 12.754-1.637 17.324-6.207 4.07-4.07 6.312-9.48 6.312-15.238 0-5.754-2.242-11.164-6.312-15.234-4.2-4.199-9.72-6.301-15.235-6.301z" fill="#4c241d"/><path d="m155.021 156.953c-1.023 0-2.047-.391-2.828-1.172l-8.484-8.484c-1.562-1.562-1.562-4.094 0-5.656s4.094-1.562 5.656 0l8.484 8.484c1.562 1.562 1.562 4.094 0 5.656-.781.781-1.804 1.172-2.828 1.172z" fill="#4c241d"/><path d="m146.537 165.438c-1.023 0-2.047-.391-2.828-1.172l-8.484-8.484c-1.562-1.562-1.562-4.094 0-5.656s4.094-1.562 5.656 0l8.484 8.484c1.562 1.562 1.562 4.094 0 5.656-.781.781-1.804 1.172-2.828 1.172z" fill="#4c241d"/><path d="m81.482 145.641c-1.023 0-2.047-.391-2.828-1.172l-14.141-14.145c-1.562-1.562-1.562-4.094 0-5.656s4.094-1.562 5.656 0l14.141 14.145c1.562 1.562 1.562 4.094 0 5.656-.781.781-1.804 1.172-2.828 1.172z" fill="#4c241d"/><path d="m171.994 236.148c-1.023 0-2.047-.391-2.828-1.172l-14.145-14.141c-1.562-1.562-1.562-4.094 0-5.656s4.094-1.562 5.656 0l14.145 14.141c1.562 1.562 1.562 4.094 0 5.656-.781.782-1.804 1.172-2.828 1.172z" fill="#4c241d"/><path d="m200.279 104.133h-14.945c-2.211 0-4-1.789-4-4s1.789-4 4-4h14.945c2.211 0 4 1.789 4 4s-1.789 4-4 4z" fill="#4c241d"/><path d="m202.451 118.273h-8.633c-2.211 0-4-1.789-4-4s1.789-4 4-4h8.633c2.211 0 4 1.789 4 4s-1.789 4-4 4z" fill="#4c241d"/><path d="m205.936 264.434c-1.023 0-2.047-.391-2.828-1.172l-4.242-4.242c-2.645-2.645-4.102-6.16-4.102-9.898 0-3.742 1.457-7.258 4.102-9.902l8.484-8.484c1.133-1.133 1.758-2.641 1.758-4.242s-.625-3.109-1.758-4.242c-5.461-5.457-5.461-14.344 0-19.801l22.629-22.625c2.336-2.34 2.336-6.148 0-8.488l-12.73-12.727c-1.562-1.562-1.562-4.094 0-5.656s4.094-1.562 5.656 0l12.73 12.727c5.453 5.461 5.453 14.34 0 19.801l-22.629 22.625c-2.34 2.34-2.34 6.148 0 8.488 5.457 5.457 5.457 14.34 0 19.797l-8.484 8.484c-2.34 2.34-2.34 6.148 0 8.488l4.242 4.242c1.562 1.562 1.562 4.094 0 5.656-.782.78-1.805 1.171-2.828 1.171z" fill="#4c241d"/></svg>